<?xml version="1.0" encoding="UTF-8" standalone="no"?>
<!DOCTYPE svg PUBLIC "-//W3C//DTD SVG 1.1//EN" "http://www.w3.org/Graphics/SVG/1.1/DTD/svg11.dtd">
<svg version="1.1" xmlns="http://www.w3.org/2000/svg" xmlns:xlink="http://www.w3.org/1999/xlink" preserveAspectRatio="xMidYMid meet" viewBox="0 0 640 640" width="640" height="640"><defs><path d="M308.88 301.71C313.88 301.71 317.94 305.77 317.94 310.78C317.94 342.66 317.94 429.25 317.94 461.13C317.94 466.14 313.88 470.2 308.88 470.2C271.68 470.2 169.17 470.2 131.98 470.2C126.97 470.2 122.91 466.14 122.91 461.13C122.91 429.25 122.91 342.66 122.91 310.78C122.91 305.77 126.97 301.71 131.98 301.71C169.17 301.71 271.68 301.71 308.88 301.71Z" id="b44fw8km6"></path><path d="M191.77 401.55C191.77 413.37 181.86 422.96 169.65 422.96C157.43 422.96 147.52 413.37 147.52 401.55C147.52 389.73 157.43 380.13 169.65 380.13C181.86 380.13 191.77 389.73 191.77 401.55Z" id="d5yWikKP1"></path><path d="M157.23 342.33C158.6 342.33 159.72 343.44 159.72 344.81C159.72 351.26 159.72 368.14 159.72 374.6C159.72 375.97 158.6 377.08 157.23 377.08C156.74 377.08 157.73 377.08 157.23 377.08C155.86 377.08 154.75 375.97 154.75 374.6C154.75 368.14 154.75 351.26 154.75 344.81C154.75 343.44 155.86 342.33 157.23 342.33C157.73 342.33 156.74 342.33 157.23 342.33Z" id="iJXgQDPqd"></path><path d="M169.65 334.52C171.02 334.52 172.13 335.64 172.13 337.01C172.13 343.46 172.13 360.34 172.13 366.79C172.13 368.17 171.02 369.28 169.65 369.28C169.15 369.28 170.14 369.28 169.65 369.28C168.27 369.28 167.16 368.17 167.16 366.79C167.16 360.34 167.16 343.46 167.16 337.01C167.16 335.64 168.27 334.52 169.65 334.52C170.14 334.52 169.15 334.52 169.65 334.52Z" id="fRhuE1K2h"></path><path d="M181.06 351.9C182.43 351.9 183.55 353.01 183.55 354.38C183.55 358.71 183.55 369.21 183.55 373.53C183.55 374.9 182.43 376.01 181.06 376.01C180.57 376.01 181.56 376.01 181.06 376.01C179.69 376.01 178.58 374.9 178.58 373.53C178.58 369.21 178.58 358.71 178.58 354.38C178.58 353.01 179.69 351.9 181.06 351.9C181.56 351.9 180.57 351.9 181.06 351.9Z" id="bEEosB6j"></path><path d="M344.62 263.62C349.43 263.62 353.33 267.52 353.33 272.33C353.33 319.52 353.33 452.39 353.33 499.59C353.33 504.4 349.43 508.3 344.62 508.3C318.42 508.3 248.53 508.3 222.33 508.3C217.52 508.3 213.62 504.4 213.62 499.59C213.62 452.39 213.62 319.52 213.62 272.33C213.62 267.52 217.52 263.62 222.33 263.62C248.53 263.62 318.42 263.62 344.62 263.62Z" id="b12djPachS"></path><path d="M321.42 301.71C321.42 309.15 315.38 315.19 307.94 315.19C300.51 315.19 294.47 309.15 294.47 301.71C294.47 294.28 300.51 288.24 307.94 288.24C315.38 288.24 321.42 294.28 321.42 301.71Z" id="a6c5SV8pHH"></path><path d="M265.46 355.8C265.46 363.24 259.42 369.28 251.99 369.28C244.55 369.28 238.51 363.24 238.51 355.8C238.51 348.36 244.55 342.33 251.99 342.33C259.42 342.33 265.46 348.36 265.46 355.8Z" id="c1N3fIvRyC"></path><path d="M340.74 354.03C342.31 354.03 343.58 355.3 343.58 356.87C343.58 357.43 343.58 356.3 343.58 356.87C343.58 358.43 342.31 359.7 340.74 359.7C317.27 359.7 249.68 359.7 226.21 359.7C224.64 359.7 223.37 358.43 223.37 356.87C223.37 356.3 223.37 357.43 223.37 356.87C223.37 355.3 224.64 354.03 226.21 354.03C249.68 354.03 317.27 354.03 340.74 354.03Z" id="e88N8WbVY"></path><path d="M340.74 298.88C342.31 298.88 343.58 300.15 343.58 301.71C343.58 302.28 343.58 301.15 343.58 301.71C343.58 303.28 342.31 304.55 340.74 304.55C317.27 304.55 249.68 304.55 226.21 304.55C224.64 304.55 223.37 303.28 223.37 301.71C223.37 301.15 223.37 302.28 223.37 301.71C223.37 300.15 224.64 298.88 226.21 298.88C249.68 298.88 317.27 298.88 340.74 298.88Z" id="c222m86ceT"></path><path d="M235.99 421.77L262.94 421.77L262.94 467.16L235.99 467.16L235.99 421.77Z" id="bD8V1MUzz"></path><path d="M270.32 403.67L297.27 403.67L297.27 467.16L270.32 467.16L270.32 403.67Z" id="b7ttD8TtH"></path><path d="M304.01 388.09L330.96 388.09L330.96 467.16L304.01 467.16L304.01 388.09Z" id="a9lQc3f2bm"></path></defs><g><g><g><use xlink:href="#b44fw8km6" opacity="1" fill="#ffffff" fill-opacity="1"></use><g><use xlink:href="#b44fw8km6" opacity="1" fill-opacity="0" stroke="#00bfff" stroke-width="8" stroke-opacity="1"></use></g></g><g><use xlink:href="#d5yWikKP1" opacity="1" fill="#00c0ff" fill-opacity="1"></use></g><g><use xlink:href="#iJXgQDPqd" opacity="1" fill="#01c0ff" fill-opacity="1"></use></g><g><use xlink:href="#fRhuE1K2h" opacity="1" fill="#01c0ff" fill-opacity="1"></use></g><g><use xlink:href="#bEEosB6j" opacity="1" fill="#01c0ff" fill-opacity="1"></use></g><g><use xlink:href="#b12djPachS" opacity="1" fill="#00c1ff" fill-opacity="1"></use></g><g><use xlink:href="#a6c5SV8pHH" opacity="1" fill="#ffffff" fill-opacity="1"></use></g><g><use xlink:href="#c1N3fIvRyC" opacity="1" fill="#ffffff" fill-opacity="1"></use></g><g><use xlink:href="#e88N8WbVY" opacity="1" fill="#ffffff" fill-opacity="1"></use></g><g><use xlink:href="#c222m86ceT" opacity="1" fill="#ffffff" fill-opacity="1"></use></g><g><use xlink:href="#bD8V1MUzz" opacity="1" fill="#f6fdff" fill-opacity="1"></use></g><g><use xlink:href="#b7ttD8TtH" opacity="1" fill="#f6fdff" fill-opacity="1"></use></g><g><use xlink:href="#a9lQc3f2bm" opacity="1" fill="#f6fdff" fill-opacity="1"></use></g></g></g></svg>