<?xml version="1.0" encoding="iso-8859-1"?>
<!-- Generator: Adobe Illustrator 19.0.0, SVG Export Plug-In . SVG Version: 6.00 Build 0)  -->
<svg version="1.1" id="Capa_1" xmlns="http://www.w3.org/2000/svg" xmlns:xlink="http://www.w3.org/1999/xlink" x="0px" y="0px"
	 viewBox="0 0 512 512" style="enable-background:new 0 0 512 512;" xml:space="preserve">
<path style="fill:#5C5E70;" d="M512,256c0,38.41-8.453,74.846-23.625,107.541c-6.134,13.26-13.385,25.913-21.629,37.825
	c-17.283,25.015-38.912,46.801-63.781,64.272C361.378,494.853,310.69,512,256,512C114.615,512,0,397.385,0,256
	c0-54.669,17.136-105.336,46.331-146.923C92.641,43.112,169.284,0,256,0c85.232,0,160.747,41.66,207.276,105.723
	c17.335,23.865,30.647,50.845,38.943,79.935C508.583,208.008,512,231.602,512,256z"/>
<path style="fill:#FF525D;" d="M449.306,318.704c0,54.68-17.136,105.347-46.341,146.934C361.378,494.853,310.69,512,256,512
	C114.615,512,0,397.385,0,256c0-54.669,17.136-105.336,46.331-146.923c41.597-29.226,92.275-46.373,146.975-46.373v256H449.306z"/>
<path style="fill:#FFD15C;" d="M484.569,283.441h-256v-256C369.954,27.441,484.569,142.056,484.569,283.441z"/>
<g>
</g>
<g>
</g>
<g>
</g>
<g>
</g>
<g>
</g>
<g>
</g>
<g>
</g>
<g>
</g>
<g>
</g>
<g>
</g>
<g>
</g>
<g>
</g>
<g>
</g>
<g>
</g>
<g>
</g>
</svg>
