<?xml version="1.0" encoding="iso-8859-1"?>
<!-- Generator: Adobe Illustrator 19.0.0, SVG Export Plug-In . SVG Version: 6.00 Build 0)  -->
<svg version="1.1" id="Capa_1" xmlns="http://www.w3.org/2000/svg" xmlns:xlink="http://www.w3.org/1999/xlink" x="0px" y="0px"
	 viewBox="0 0 512 512" style="enable-background:new 0 0 512 512;" xml:space="preserve">
<path style="fill:#34ABE0;" d="M512,256c0,55.881-17.899,107.583-48.285,149.671c-0.867,1.202-1.745,2.393-2.633,3.574
	c-16.248,21.723-35.871,40.772-58.096,56.372C361.388,494.843,310.7,512,256,512c-17.377,0-34.346-1.735-50.751-5.036
	c-31.378-6.301-60.677-18.348-86.758-35.004c-18.683-11.912-35.725-26.196-50.688-42.412C27.46,385.829,2.163,328.004,0.136,264.317
	C0.042,261.559,0,258.779,0,256c0-8.6,0.428-17.095,1.254-25.475c0.888-9.038,2.257-17.93,4.065-26.655
	C16.447,150.037,44.481,102.4,83.623,66.738c10.783-9.832,22.424-18.756,34.774-26.645C158.135,14.712,205.343,0,256,0
	c135.837,0,246.972,105.806,255.478,239.501C511.822,244.955,512,250.452,512,256z"/>
<path style="fill:#F9EED7;" d="M512,256c0,55.881-17.899,107.583-48.285,149.671c-22.727,16.218-50.542,25.757-80.583,25.757H87.845
	c-6.855,0-13.552-0.648-20.041-1.881C27.46,385.829,2.163,328.004,0.136,264.317c19.226-27.815,51.336-46.038,87.709-46.038
	c3.218,0,6.405,0.157,9.55,0.428c22.162-60.75,80.457-104.124,148.877-104.124c41.576,0,79.412,16.029,107.677,42.235
	c9.415-2.017,19.174-3.082,29.184-3.082c57.887,0,107.499,35.422,128.345,85.765C511.822,244.955,512,250.452,512,256z"/>
<path style="fill:#FF525D;" d="M325.068,166.778V28.751C325.068,12.872,312.195,0,296.316,0h-83.895
	c-15.879,0-28.751,12.872-28.751,28.751v138.027c0,3.993-3.236,7.229-7.229,7.229h-27.258c-6.44,0-9.665,7.787-5.112,12.34
	l110.297,110.297l110.297-110.297c4.554-4.554,1.329-12.34-5.112-12.34h-27.258C328.304,174.007,325.068,170.771,325.068,166.778z"
	/>
<g>
</g>
<g>
</g>
<g>
</g>
<g>
</g>
<g>
</g>
<g>
</g>
<g>
</g>
<g>
</g>
<g>
</g>
<g>
</g>
<g>
</g>
<g>
</g>
<g>
</g>
<g>
</g>
<g>
</g>
</svg>
