<svg id="Layer_1" enable-background="new 0 0 512 512" height="512" viewBox="0 0 512 512" width="512" xmlns="http://www.w3.org/2000/svg"><g><path d="m491.195 391.194-39.918-39.918c-2.098-2.098-4.944-3.276-7.911-3.276h-.178c-6.179 0-28.855 0-31.822 0h-.178c-6.179 0-11.188 5.009-11.188 11.188v89.625c0 6.179 5.009 11.188 11.188 11.188h32c3.072 0 6.009-1.264 8.122-3.493l40.194-42.428c2.887-3.047 4.496-7.085 4.496-11.283 0-4.353-1.729-8.526-4.805-11.603z" fill="#289bc3"/><path d="m459.195 391.194-39.918-39.918c-2.098-2.098-4.944-3.276-7.911-3.276h-.178c-6.179 0-11.188 5.009-11.188 11.188v12.812h-192v64h192v12.813c0 6.179 5.009 11.188 11.188 11.188 3.072 0 6.009-1.264 8.122-3.493l40.194-42.428c2.887-3.047 4.496-7.085 4.496-11.283 0-4.353-1.729-8.526-4.805-11.603z" fill="#00d2d2"/><path d="m240 148v-64c-10.926 0-32 0-32 0-97.047 0-176 78.953-176 176s78.953 176 176 176h32v-64c-61.757 0-112-50.243-112-112s50.243-112 112-112z" fill="#289bc3"/><path d="m208 436c-97.047 0-176-78.953-176-176s78.953-176 176-176v64c-61.757 0-112 50.243-112 112s50.243 112 112 112z" fill="#00d2d2"/><path d="m240 84v-12.812c0-6.179-5.009-11.188-11.187-11.188h-.178-31.822-.178c-2.967 0-5.813 1.179-7.911 3.276l-39.727 39.728c-1.715 1.715-3.116 3.741-3.956 6.016-2.243 6.077-.75 12.62 3.457 17.06l40.194 42.428c2.113 2.229 5.05 3.493 8.122 3.493h32c6.179 0 11.188-5.009 11.188-11.188v-8.146c46.412 13.861 80.291 57.063 79.998 107.988-.357 61.802-51.429 111.345-113.232 111.345h-142.768-32c-8.836 0-16 7.163-16 16v32c0 8.837 7.164 16 16 16h32 142.296 32c97.286 0 177.432-78.216 177.703-175.502.271-97.274-78.786-176.498-175.999-176.498z" fill="#e64178"/><path d="m208 84v-12.812c0-6.179-5.009-11.188-11.187-11.188h-.178c-2.967 0-5.813 1.179-7.911 3.276l-39.727 39.727c-1.715 1.715-3.117 3.741-3.956 6.016-2.243 6.077-.75 12.62 3.457 17.059l40.194 42.428c2.113 2.229 5.05 3.493 8.122 3.493 6.179 0 11.188-5.009 11.188-11.188v-12.811c61.975 0 112.355 50.599 111.998 112.655-.357 61.802-51.429 111.345-113.232 111.345h-174.768c-8.837 0-16 7.163-16 16v32c0 8.837 7.163 16 16 16h174.296c97.286 0 177.432-78.216 177.703-175.501.271-97.275-78.786-176.499-175.999-176.499z" fill="#ff6e91"/><g><circle cx="368" cy="148" fill="#00d2d2" r="96"/><path d="m429.714 148c0-2.072-.107-4.118-.311-6.135-.325-3.211 1.287-6.305 4.082-7.919l.007-.004c3.948-2.279 5.3-7.327 3.021-11.274l-12.318-21.336c-2.279-3.947-7.327-5.3-11.274-3.021l-.013.007c-2.794 1.613-6.279 1.462-8.897-.423-3.318-2.39-6.881-4.458-10.647-6.159-2.932-1.324-4.793-4.267-4.793-7.484 0-4.558-3.695-8.253-8.253-8.253h-24.636c-4.558 0-8.253 3.695-8.253 8.253 0 3.217-1.861 6.16-4.793 7.484-3.766 1.701-7.329 3.769-10.647 6.159-2.618 1.885-6.103 2.036-8.897.423l-.013-.007c-3.947-2.279-8.995-.927-11.274 3.021l-12.318 21.336c-2.279 3.947-.927 8.995 3.021 11.274l.007.004c2.795 1.614 4.406 4.708 4.082 7.919-.204 2.018-.311 4.064-.311 6.135s.107 4.118.311 6.135c.325 3.211-1.287 6.305-4.082 7.919l-.007.004c-3.948 2.279-5.3 7.327-3.021 11.274l12.318 21.336c2.279 3.947 7.327 5.3 11.274 3.021l.013-.007c2.794-1.613 6.279-1.462 8.897.423 3.318 2.39 6.881 4.458 10.647 6.158 2.932 1.324 4.793 4.267 4.793 7.484 0 4.558 3.695 8.253 8.253 8.253h24.636c4.558 0 8.253-3.695 8.253-8.253 0-3.217 1.861-6.16 4.793-7.484 3.766-1.701 7.33-3.769 10.647-6.158 2.618-1.885 6.103-2.036 8.897-.423l.013.007c3.947 2.279 8.995.927 11.274-3.021l12.318-21.336c2.279-3.947.927-8.995-3.021-11.274l-.007-.004c-2.795-1.614-4.406-4.708-4.082-7.919.204-2.017.311-4.063.311-6.135z" fill="#d7e6f0"/><circle cx="368" cy="148" fill="#00d2d2" r="24"/></g></g></svg>