<svg id="Layer_1" enable-background="new 0 0 512 512" height="512" viewBox="0 0 512 512" width="512" xmlns="http://www.w3.org/2000/svg"><g><g><path d="m384 496h-256c-17.673 0-32-14.327-32-32v-416c0-17.673 14.327-32 32-32h256c17.673 0 32 14.327 32 32v416c0 17.673-14.327 32-32 32z" fill="#a5c3dc"/></g><g><path d="m336 496h-208c-17.673 0-32-14.327-32-32v-416c0-17.673 14.327-32 32-32h208c17.673 0 32 14.327 32 32v416c0 17.673-14.327 32-32 32z" fill="#d7e6f0"/></g><g><path d="m320 464h-176c-8.837 0-16-7.163-16-16v-352c0-8.837 7.163-16 16-16h176c8.837 0 16 7.163 16 16v352c0 8.837-7.163 16-16 16z" fill="#289bc3"/></g><g><path d="m264 56h-64c-4.418 0-8-3.582-8-8 0-4.418 3.582-8 8-8h64c4.418 0 8 3.582 8 8 0 4.418-3.582 8-8 8z" fill="#555a6e"/></g><g><path d="m296 274.667h-128c-4.418 0-8-3.582-8-8v-146.667c0-4.418 3.582-8 8-8h128c4.418 0 8 3.582 8 8v146.667c0 4.418-3.582 8-8 8z" fill="#00d2d2"/></g><g><path d="m264 336h-64c-4.418 0-8-3.582-8-8v-16c0-4.418 3.582-8 8-8h64c4.418 0 8 3.582 8 8v16c0 4.418-3.582 8-8 8z" fill="#00d2d2"/></g><g><path d="m296 376h-128c-4.418 0-8-3.582-8-8 0-4.418 3.582-8 8-8h128c4.418 0 8 3.582 8 8 0 4.418-3.582 8-8 8z" fill="#00d2d2"/></g><g><circle cx="232" cy="432" fill="#00d2d2" r="8"/></g><g><circle cx="264" cy="432" fill="#00d2d2" r="8"/></g><g><circle cx="200" cy="432" fill="#00d2d2" r="8"/></g><g fill="#289bc3"><path d="m248 225.333h-4v-41.333c0-6.627-5.373-12-12-12h-16c-6.627 0-12 5.373-12 12s5.373 12 12 12h4v29.333h-4c-6.627 0-12 5.373-12 12s5.373 12 12 12h32c6.627 0 12-5.373 12-12s-5.373-12-12-12z"/><circle cx="232" cy="149.333" r="16"/></g></g></svg>