<svg id="Layer_1" enable-background="new 0 0 512 512" height="512" viewBox="0 0 512 512" width="512" xmlns="http://www.w3.org/2000/svg"><g><g><g><path d="m472 376h-432v-208c0-17.673 14.327-32 32-32h368c17.673 0 32 14.327 32 32z" fill="#463c4b"/></g><g><path d="m440 376h-400v-208c0-17.673 14.327-32 32-32h336c17.673 0 32 14.327 32 32z" fill="#555a6e"/></g><g><path d="m72 416h368c17.673 0 32-14.327 32-32v-8h-432v8c0 17.673 14.327 32 32 32z" fill="#a5c3dc"/></g><g><path d="m408 416h-336c-17.673 0-32-14.327-32-32v-8h400v8c0 17.673-14.327 32-32 32z" fill="#d7e6f0"/></g><g><path d="m208 416h72v32h-72z" fill="#a5c3dc"/></g><g><path d="m208 432h48v16h-48z" fill="#d7e6f0"/></g><g><path d="m320 472h-160v-8c0-8.837 7.163-16 16-16h128c8.837 0 16 7.163 16 16z" fill="#d7e6f0"/></g><g><path d="m320 472h-48v-8c0-8.837 7.163-16 16-16h16c8.837 0 16 7.163 16 16z" fill="#a5c3dc"/></g></g><g><path d="m376 328h-272c-8.837 0-16-7.163-16-16v-256c0-8.837 7.163-16 16-16h272c8.837 0 16 7.163 16 16v256c0 8.837-7.163 16-16 16z" fill="#d7e6f0"/></g><g><path d="m392 72h-304v-16c0-8.837 7.163-16 16-16h272c8.837 0 16 7.163 16 16z" fill="#555a6e"/></g><g><circle cx="120" cy="56" fill="#289bc3" r="8"/></g><g><circle cx="152" cy="56" fill="#ff6e91" r="8"/></g><g><circle cx="184" cy="56" fill="#d7e6f0" r="8"/></g><g><path d="m352 200h-226.667c-4.418 0-8-3.582-8-8v-80c0-4.418 3.582-8 8-8h226.667c4.418 0 8 3.582 8 8v80c0 4.418-3.582 8-8 8z" fill="#289bc3"/></g><g><path d="m224 296h-98.667c-4.418 0-8-3.582-8-8v-64c0-4.418 3.582-8 8-8h98.667c4.418 0 8 3.582 8 8v64c0 4.418-3.582 8-8 8z" fill="#00d2d2"/></g><g><path d="m352 232h-98.667c-4.418 0-8-3.582-8-8 0-4.418 3.582-8 8-8h98.667c4.418 0 8 3.582 8 8 0 4.418-3.582 8-8 8z" fill="#a5c3dc"/></g><g><path d="m352 264h-98.667c-4.418 0-8-3.582-8-8 0-4.418 3.582-8 8-8h98.667c4.418 0 8 3.582 8 8 0 4.418-3.582 8-8 8z" fill="#a5c3dc"/></g><g><path d="m352 296h-98.667c-4.418 0-8-3.582-8-8 0-4.418 3.582-8 8-8h98.667c4.418 0 8 3.582 8 8 0 4.418-3.582 8-8 8z" fill="#a5c3dc"/></g><g><g><path d="m465.943 353.943-33.943-33.943 10.979-10.979c10.71-10.71 3.125-29.021-12.021-29.021h-83.207c-5.19 0-10.34 1.303-14.751 4.037-8.215 5.092-13 13.951-13 23.302v51.619c0 10.248 8.384 17.024 17.124 17.024l-.001.01h32l.001-.01c1.949 0 3.912-.34 5.807-1.052l19.412 19.412c3.622 3.623 8.535 5.658 13.657 5.658h32c5.122 0 10.035-2.035 13.657-5.657l12.686-12.686c4.613-4.613 6.652-11.319 5.19-17.887-.833-3.746-2.877-7.114-5.59-9.827z" fill="#289bc3"/></g><g><path d="m434.343 354.343-34.343-34.343 10.979-10.979c10.71-10.71 3.125-29.021-12.021-29.021h-51.67c-7.237 0-14.176 2.878-19.288 8-5.123 5.132-8 12.088-8 19.339v51.619c0 15.145 18.311 22.73 29.021 12.021l10.979-10.979 34.343 34.343c3.622 3.622 8.535 5.657 13.657 5.657 5.122 0 10.035-2.035 13.657-5.657l12.687-12.687c3.621-3.622 5.656-8.534 5.656-13.656 0-5.122-2.035-10.035-5.657-13.657z" fill="#00d2d2"/></g></g></g></svg>