<?xml version="1.0" encoding="iso-8859-1"?>
<!-- Generator: Adobe Illustrator 19.0.0, SVG Export Plug-In . SVG Version: 6.00 Build 0)  -->
<svg version="1.1" id="Capa_1" xmlns="http://www.w3.org/2000/svg" xmlns:xlink="http://www.w3.org/1999/xlink" x="0px" y="0px"
	 viewBox="0 0 512 512" style="enable-background:new 0 0 512 512;" xml:space="preserve">
<path style="fill:#5C5E70;" d="M512,256c0,2.884-0.052,5.757-0.136,8.62c-0.93,28.014-6.363,54.888-15.6,79.935
	c-10.47,28.421-25.851,54.481-45.108,77.134c-10.533,12.392-22.215,23.761-34.9,33.949c-9.718,7.805-20.01,14.921-30.814,21.264
	c-6.113,3.594-12.382,6.938-18.808,10.01c-15.977,7.69-32.883,13.751-50.5,17.983C296.845,509.544,276.71,512,256,512
	c-20.72,0-40.855-2.456-60.144-7.105c-6.008-1.452-11.933-3.103-17.763-4.963c-16.812-5.371-32.862-12.424-47.95-20.961
	c-6.447-3.647-12.727-7.576-18.808-11.745c-18.798-12.894-35.777-28.223-50.5-45.547c-18.045-21.232-32.674-45.443-43.071-71.795
	c-6.687-16.959-11.619-34.795-14.555-53.3C1.097,283.366,0,269.814,0,256c0-33.991,6.625-66.435,18.651-96.11
	c3.709-9.153,7.941-18.045,12.643-26.645c8.391-15.329,18.307-29.706,29.539-42.924c14.723-17.324,31.713-32.664,50.5-45.568
	c1.337-0.909,2.685-1.818,4.033-2.706c4.817-3.166,9.738-6.175,14.775-9.017c1.003-0.564,2.017-1.128,3.03-1.682
	c11.013-6.04,22.518-11.295,34.45-15.673c9.31-3.438,18.881-6.343,28.672-8.673C215.448,2.424,235.436,0,256,0
	c5.026,0,10.021,0.146,14.984,0.439c15.297,0.878,30.25,3.103,44.711,6.562c9.791,2.341,19.372,5.245,28.703,8.673
	c14.326,5.277,28.056,11.786,41.044,19.425c3.793,2.215,7.523,4.545,11.191,6.949c13.155,8.662,25.454,18.505,36.76,29.393
	c6.228,5.977,12.163,12.278,17.763,18.871C489.106,134.959,512,192.815,512,256z"/>
<path style="fill:#F4A14E;" d="M316.134,41.273v463.621C296.845,509.544,276.71,512,256,512c-20.72,0-40.855-2.456-60.144-7.105
	c-6.008-1.452-11.933-3.103-17.763-4.963c-16.812-5.371-32.862-12.424-47.95-20.961c-6.447-3.647-12.727-7.576-18.808-11.745
	c-18.798-12.894-35.777-28.223-50.5-45.547V41.273c0-5.486,4.441-9.927,9.927-9.927h235.457c4.462,0,8.234,2.947,9.477,7.001
	C315.977,39.278,316.134,40.249,316.134,41.273z"/>
<g>
	<path style="fill:#E28D40;" d="M278.003,41.269v32.127H60.836V41.269c0-5.479,4.442-9.921,9.921-9.921h197.327
		C273.562,31.348,278.003,35.79,278.003,41.269z"/>
	<path style="fill:#E28D40;" d="M366.634,41.273v445.638c-15.977,7.69-32.883,13.751-50.5,17.983
		C296.845,509.544,276.71,512,256,512c-20.72,0-40.855-2.456-60.144-7.105c-6.008-1.452-11.933-3.103-17.763-4.963
		c-16.812-5.371-32.862-12.424-47.95-20.961c-6.447-3.647-12.727-7.576-18.808-11.745V41.273c0-5.486,4.441-9.927,9.916-9.927
		h235.457C362.182,31.347,366.634,35.788,366.634,41.273z"/>
</g>
<path style="fill:#FFD15C;" d="M385.442,25.6v451.302c-6.113,3.594-12.382,6.938-18.808,10.01
	c-15.977,7.69-32.883,13.751-50.5,17.983C296.845,509.544,276.71,512,256,512c-20.72,0-40.855-2.456-60.144-7.105
	c-6.008-1.452-11.933-3.103-17.763-4.963c-16.812-5.371-32.862-12.424-47.95-20.961V25.6c0-5.486,4.441-9.927,9.916-9.927h235.457
	C380.991,15.673,385.442,20.114,385.442,25.6z"/>
<g>
	<path style="fill:#EDBB4C;" d="M433.392,25.6v411.763c-5.413,6.363-11.128,12.466-17.136,18.275
		c-9.718,7.805-20.01,14.921-30.814,21.264c-6.113,3.594-12.382,6.938-18.808,10.01c-15.977,7.69-32.883,13.751-50.5,17.983
		C296.845,509.544,276.71,512,256,512c-20.72,0-40.855-2.456-60.144-7.105c-6.008-1.452-11.933-3.103-17.763-4.963V25.6
		c0-1.024,0.157-1.996,0.439-2.926c1.243-4.054,5.016-7.001,9.488-7.001h235.457C428.951,15.673,433.392,20.114,433.392,25.6z"/>
	<path style="fill:#EDBB4C;" d="M130.139,57.723h255.299V25.597c0-5.479-4.442-9.921-9.921-9.921H140.059
		c-5.479,0-9.921,4.442-9.921,9.921v32.126H130.139z"/>
</g>
<path style="fill:#E8DBC4;" d="M451.156,9.927v411.763c-18.599,21.88-40.803,40.594-65.714,55.212
	c-21.316,12.528-44.617,22.058-69.308,27.993C296.845,509.544,276.71,512,256,512c-20.72,0-40.855-2.456-60.144-7.105V9.927
	c0-1.024,0.157-1.996,0.439-2.926C197.538,2.947,201.31,0,205.782,0h235.457C446.715,0,451.156,4.441,451.156,9.927z"/>
<path style="fill:#D6C8B0;" d="M332.988,463.086v-23.228c0-3.51-2.845-6.355-6.355-6.355h-6.247c-3.51,0-6.355,2.845-6.355,6.355
	v23.228c0,3.51-2.845,6.355-6.355,6.355h-0.001c-5.662,0-8.497,6.845-4.494,10.849l15.834,15.834c2.482,2.482,6.506,2.482,8.987,0
	l15.834-15.834c4.004-4.004,1.168-10.849-4.494-10.849l0,0C335.833,469.441,332.988,466.596,332.988,463.086z"/>
<circle style="fill:#FF525D;" cx="262.844" cy="104.897" r="46.641"/>
<path style="fill:#2BA5F7;" d="M309.606,248.979v50.556c0,6.282-5.092,11.374-11.374,11.374h-70.778
	c-6.282,0-11.374-5.092-11.374-11.374v-50.556c0-6.282,5.092-11.374,11.374-11.374h70.778
	C304.514,237.606,309.606,242.698,309.606,248.979z"/>
<path style="fill:#4BC999;" d="M428.396,358.618v50.556c0,6.282-5.092,11.374-11.374,11.374h-75.821
	c-6.282,0-11.374-5.092-11.374-11.374v-50.556c0-6.282,5.092-11.374,11.374-11.374h75.821
	C423.304,347.246,428.396,352.337,428.396,358.618z"/>
<g>
	<rect x="329.832" y="70.165" style="fill:#5C5E70;" width="93.529" height="15.167"/>
	<rect x="329.832" y="124.468" style="fill:#5C5E70;" width="93.529" height="15.167"/>
	<rect x="329.832" y="97.322" style="fill:#5C5E70;" width="93.529" height="15.167"/>
	<rect x="329.832" y="239.522" style="fill:#5C5E70;" width="93.529" height="15.167"/>
	<rect x="329.832" y="293.825" style="fill:#5C5E70;" width="93.529" height="15.167"/>
	<rect x="329.832" y="266.679" style="fill:#5C5E70;" width="93.529" height="15.167"/>
	<rect x="216.085" y="349.163" style="fill:#5C5E70;" width="93.529" height="15.167"/>
	<rect x="216.085" y="403.466" style="fill:#5C5E70;" width="93.529" height="15.167"/>
	<rect x="216.085" y="376.31" style="fill:#5C5E70;" width="93.529" height="15.167"/>
</g>
<g>
	<polygon style="fill:#D6C8B0;" points="338.331,183.172 331.181,176.022 322.244,184.959 313.307,176.022 306.158,183.172 
		315.095,192.109 306.158,201.046 313.307,208.195 322.244,199.258 331.181,208.195 338.331,201.046 329.394,192.109 	"/>
	<rect x="357" y="186.42" style="fill:#D6C8B0;" width="64.457" height="11.375"/>
	<rect x="225.562" y="186.42" style="fill:#D6C8B0;" width="64.457" height="11.375"/>
	<path style="fill:#D6C8B0;" d="M195.859,42.05h255.299V9.923c0-5.479-4.442-9.921-9.921-9.921H205.779
		c-5.479,0-9.921,4.442-9.921,9.921V42.05H195.859z"/>
</g>
<circle style="fill:#FF525D;" cx="224.758" cy="21.023" r="11.386"/>
<circle style="fill:#4BC999;" cx="292.571" cy="21.023" r="11.386"/>
<circle style="fill:#FFD15C;" cx="258.351" cy="21.023" r="11.386"/>
<path style="fill:#E8DBC4;" d="M430.498,24.315h-61.649c-3.463,0-6.269-2.807-6.269-6.269l0,0c0-3.463,2.807-6.269,6.269-6.269
	h61.649c3.463,0,6.269,2.807,6.269,6.269l0,0C436.767,21.508,433.961,24.315,430.498,24.315z"/>
<g>
</g>
<g>
</g>
<g>
</g>
<g>
</g>
<g>
</g>
<g>
</g>
<g>
</g>
<g>
</g>
<g>
</g>
<g>
</g>
<g>
</g>
<g>
</g>
<g>
</g>
<g>
</g>
<g>
</g>
</svg>
