<svg id="Layer_1" enable-background="new 0 0 512 512" height="512" viewBox="0 0 512 512" width="512" xmlns="http://www.w3.org/2000/svg"><g><g fill="#555a6e"><path d="m171.79 263.393-18.177-14.138c-1.046-.813-2.332-1.255-3.657-1.255-3.29 0-5.956 2.667-5.956 5.956v10.044h-8c-13.234 0-24 10.766-24 24v24c0 4.418 3.582 8 8 8s8-3.582 8-8v-24c0-4.411 3.589-8 8-8h8v10.043c0 3.29 2.667 5.957 5.956 5.957 1.325 0 2.611-.441 3.657-1.255l18.177-14.138c2.656-2.066 4.21-5.242 4.21-8.607s-1.554-6.542-4.21-8.607z"/><path d="m392 192c-4.418 0-8 3.582-8 8v24c0 4.411-3.589 8-8 8h-8v-10.044c0-3.289-2.667-5.956-5.956-5.956-1.325 0-2.611.441-3.657 1.255l-18.177 14.138c-2.656 2.065-4.21 5.242-4.21 8.607s1.554 6.542 4.21 8.607l18.177 14.138c1.046.813 2.332 1.255 3.657 1.255 3.29 0 5.956-2.667 5.956-5.957v-10.043h8c13.233 0 24-10.766 24-24v-24c0-4.418-3.582-8-8-8z"/><path d="m312 384h-24c-4.411 0-8-3.589-8-8v-16h10.044c3.29 0 5.956-2.667 5.956-5.957 0-1.324-.441-2.611-1.255-3.657l-14.138-18.177c-2.066-2.656-5.243-4.21-8.608-4.21s-6.542 1.554-8.608 4.21l-14.138 18.177c-.813 1.046-1.255 2.333-1.255 3.657 0 3.29 2.667 5.957 5.956 5.957h10.046v16c0 13.234 10.767 24 24 24h24c4.418 0 8-3.582 8-8s-3.582-8-8-8z"/><path d="m258.044 152h-10.044v-16c0-13.234-10.766-24-24-24h-24c-4.418 0-8 3.582-8 8s3.582 8 8 8h24c4.411 0 8 3.589 8 8v16h-10.044c-3.29 0-5.956 2.667-5.956 5.956 0 1.325.441 2.611 1.255 3.657l14.138 18.177c2.066 2.656 5.243 4.21 8.608 4.21s6.542-1.554 8.608-4.21l14.138-18.177c.813-1.046 1.255-2.333 1.255-3.657-.002-3.289-2.669-5.956-5.958-5.956z"/></g><g><g><circle cx="120" cy="120" fill="#289bc3" r="72"/></g><path d="m120 40c-44.183 0-80 35.817-80 80s35.817 80 80 80 80-35.817 80-80-35.817-80-80-80zm63.482 72h-31.642c-.83-20.91-4.886-39.435-10.9-52.463 22.607 7.852 39.48 28.034 42.542 52.463zm-63.482 71.545c-1.893-1.625-5.717-6.478-9.295-17.062-3.647-10.791-5.906-24.229-6.525-38.483h31.64c-.619 14.254-2.878 27.693-6.525 38.483-3.578 10.584-7.402 15.437-9.295 17.062zm-15.82-71.545c.619-14.254 2.878-27.693 6.525-38.483 3.578-10.584 7.402-15.437 9.295-17.062 1.893 1.625 5.717 6.478 9.295 17.062 3.647 10.791 5.906 24.229 6.525 38.483zm-5.121-52.463c-6.013 13.028-10.069 31.553-10.899 52.463h-31.642c3.062-24.429 19.935-44.611 42.541-52.463zm-42.541 68.463h31.642c.831 20.91 4.886 39.435 10.9 52.463-22.607-7.852-39.48-28.033-42.542-52.463zm84.423 52.463c6.014-13.029 10.069-31.554 10.9-52.463h31.642c-3.063 24.429-19.936 44.611-42.542 52.463z" fill="#00d2d2"/></g><g><g><circle cx="392" cy="120" fill="#289bc3" r="72"/></g><path d="m392 40c-44.183 0-80 35.817-80 80s35.817 80 80 80 80-35.817 80-80-35.817-80-80-80zm63.482 72h-31.642c-.83-20.91-4.886-39.435-10.9-52.463 22.607 7.852 39.48 28.034 42.542 52.463zm-63.482 71.545c-1.893-1.625-5.717-6.478-9.295-17.062-3.647-10.791-5.906-24.229-6.525-38.483h31.64c-.619 14.254-2.878 27.693-6.525 38.483-3.578 10.584-7.402 15.437-9.295 17.062zm-15.82-71.545c.619-14.254 2.878-27.693 6.525-38.483 3.578-10.584 7.402-15.437 9.295-17.062 1.893 1.625 5.717 6.478 9.295 17.062 3.647 10.791 5.906 24.229 6.525 38.483zm-5.121-52.463c-6.013 13.028-10.069 31.553-10.899 52.463h-31.642c3.062-24.429 19.935-44.611 42.541-52.463zm-42.541 68.463h31.642c.831 20.909 4.886 39.435 10.9 52.463-22.607-7.852-39.48-28.034-42.542-52.463zm84.423 52.463c6.014-13.029 10.069-31.554 10.9-52.463h31.642c-3.063 24.429-19.936 44.611-42.542 52.463z" fill="#00d2d2"/></g><g><g><circle cx="120" cy="392" fill="#289bc3" r="72"/></g><path d="m120 312c-44.183 0-80 35.817-80 80s35.817 80 80 80 80-35.817 80-80-35.817-80-80-80zm63.482 72h-31.642c-.83-20.91-4.886-39.435-10.9-52.463 22.607 7.852 39.48 28.034 42.542 52.463zm-63.482 71.545c-1.893-1.625-5.717-6.478-9.295-17.062-3.647-10.791-5.906-24.229-6.525-38.483h31.64c-.619 14.254-2.878 27.693-6.525 38.483-3.578 10.584-7.402 15.437-9.295 17.062zm-15.82-71.545c.619-14.254 2.878-27.693 6.525-38.483 3.578-10.583 7.402-15.437 9.295-17.062 1.893 1.625 5.717 6.478 9.295 17.062 3.647 10.791 5.906 24.229 6.525 38.483zm-5.121-52.463c-6.013 13.028-10.069 31.553-10.899 52.463h-31.642c3.062-24.429 19.935-44.611 42.541-52.463zm-42.541 68.463h31.642c.831 20.91 4.886 39.435 10.9 52.463-22.607-7.852-39.48-28.033-42.542-52.463zm84.423 52.463c6.014-13.029 10.069-31.554 10.9-52.463h31.642c-3.063 24.429-19.936 44.611-42.542 52.463z" fill="#00d2d2"/></g><g><g><circle cx="392" cy="392" fill="#289bc3" r="72"/></g><path d="m392 312c-44.183 0-80 35.817-80 80s35.817 80 80 80 80-35.817 80-80-35.817-80-80-80zm63.482 72h-31.642c-.83-20.91-4.886-39.435-10.9-52.463 22.607 7.852 39.48 28.034 42.542 52.463zm-63.482 71.545c-1.893-1.625-5.717-6.478-9.295-17.062-3.647-10.791-5.906-24.229-6.525-38.483h31.64c-.619 14.254-2.878 27.693-6.525 38.483-3.578 10.584-7.402 15.437-9.295 17.062zm-15.82-71.545c.619-14.254 2.878-27.693 6.525-38.483 3.578-10.583 7.402-15.437 9.295-17.062 1.893 1.625 5.717 6.478 9.295 17.062 3.647 10.791 5.906 24.229 6.525 38.483zm-5.121-52.463c-6.014 13.029-10.069 31.554-10.9 52.463h-31.642c3.063-24.429 19.936-44.611 42.542-52.463zm-42.541 68.463h31.642c.831 20.909 4.886 39.435 10.9 52.463-22.607-7.852-39.48-28.034-42.542-52.463zm84.423 52.463c6.014-13.029 10.069-31.554 10.9-52.463h31.642c-3.063 24.429-19.936 44.611-42.542 52.463z" fill="#00d2d2"/></g><g><g><path d="m320 312h-128c-4.418 0-8-3.582-8-8v-96c0-4.418 3.582-8 8-8h40l16 16h72c4.418 0 8 3.582 8 8v80c0 4.418-3.582 8-8 8z" fill="#e64178"/></g><g><path d="m312 304c0 4.418 3.582 8 8 8h-128c-4.418 0-8-3.582-8-8v-96c0-4.418 3.582-8 8-8h40l16 16h56c4.418 0 8 3.582 8 8z" fill="#ff6e91"/></g></g></g></svg>